<svg xmlns="http://www.w3.org/2000/svg" width="100" height="100" viewBox="0 0 100 100" role="img" aria-label="ABACUZ abacus mark">
  
  <rect x="12" y="12" width="76" height="76" rx="5" fill="none" stroke="#C9A24B" stroke-width="2.2"></rect>
  <line x1="12" y1="40" x2="88" y2="40" stroke="#C9A24B" stroke-width="1.8"></line>
  <g stroke="#C9A24B" stroke-width="1.1">
    <line x1="26" y1="12" x2="26" y2="88"></line>
    <line x1="38" y1="12" x2="38" y2="88"></line>
    <line x1="50" y1="12" x2="50" y2="88"></line>
    <line x1="62" y1="12" x2="62" y2="88"></line>
    <line x1="74" y1="12" x2="74" y2="88"></line>
  </g>
  <g fill="#C9A24B">
    <circle cx="26" cy="22" r="3.5"></circle><circle cx="38" cy="33" r="3.5"></circle><circle cx="50" cy="22" r="3.5"></circle><circle cx="62" cy="30" r="3.5"></circle><circle cx="74" cy="22" r="3.5"></circle>
    <circle cx="26" cy="50" r="3.5"></circle><circle cx="26" cy="60" r="3.5"></circle>
    <circle cx="38" cy="78" r="3.5"></circle><circle cx="38" cy="68" r="3.5"></circle>
    <circle cx="50" cy="50" r="3.5"></circle><circle cx="50" cy="60" r="3.5"></circle>
    <circle cx="62" cy="78" r="3.5"></circle><circle cx="62" cy="68" r="3.5"></circle>
    <circle cx="74" cy="50" r="3.5"></circle><circle cx="74" cy="60" r="3.5"></circle>
  </g>
</svg>