<svg xmlns="http://www.w3.org/2000/svg" viewBox="0 0 1080 400" width="1080" height="400" role="img" aria-label="PROXYZ wordmark, PRO white, X yellow, Y green, Z pink">
  <path d="M174 0V296H344C473 296 543 371 543 497C543 623 473 698 344 698H90V0ZM174 625H342C412 625 454 588 454 523V471C454 406 412 369 342 369H174Z" transform="translate(181.0000 262.8200) scale(0.180000 -0.180000)" fill="#ffffff"/>
  <path d="M174 298H285L455 0H549L371 302C482 313 543 385 543 497C543 623 473 698 344 698H90V0H174ZM174 369V625H342C412 625 454 588 454 523V471C454 406 412 369 342 369Z" transform="translate(303.0000 262.8200) scale(0.180000 -0.180000)" fill="#ffffff"/>
  <path d="M300 -12C470 -12 544 121 544 349C544 577 470 710 300 710C130 710 56 577 56 349C56 121 130 -12 300 -12ZM300 61C189 61 145 152 145 292V406C145 546 189 637 300 637C411 637 455 546 455 406V292C455 152 411 61 300 61Z" transform="translate(425.0000 262.8200) scale(0.180000 -0.180000)" fill="#ffffff"/>
  <path d="M352 357 568 698H476L392 563L306 422H302L215 563L134 698H39L254 356L26 0H118L206 139L301 291H305L397 139L480 0H575Z" transform="translate(547.0000 262.8200) scale(0.180000 -0.180000)" fill="#F2D78C"/>
  <path d="M342 0V274L583 698H489L389 516L302 357H298L213 516L113 698H17L258 274V0Z" transform="translate(669.0000 262.8200) scale(0.180000 -0.180000)" fill="#5BC9B8"/>
  <path d="M552 73H139L535 623V698H65V625H443L48 75V0H552Z" transform="translate(791.0000 262.8200) scale(0.180000 -0.180000)" fill="#ff4193"/>
</svg>
